<?xml version="1.0" encoding="utf-8"?>
<!-- Generator: Adobe Illustrator 19.1.0, SVG Export Plug-In . SVG Version: 6.00 Build 0)  -->
<svg version="1.1" id="MP" xmlns="http://www.w3.org/2000/svg" xmlns:xlink="http://www.w3.org/1999/xlink" x="0px" y="0px"
	 viewBox="284.2 1157.2 627 823.5" style="enable-background:new 284.2 1157.2 627 823.5;" xml:space="preserve">
<style type="text/css">
	.st0{opacity:0.51;fill:#A7A9AC;enable-background:new    ;}
	.st1{fill:#A7A9AC;}
	.st2{fill:url(#SVGID_1_);}
	.st3{fill:#6D6E71;}
	.st4{fill:#58595B;}
	.st5{fill:#939598;}
	.st6{fill:#5D5E5E;}
	.st7{fill:#4E4F4F;}
	.st8{fill:#BCBEC0;}
	.st9{fill:url(#SVGID_2_);}
	.st10{fill:#555657;}
	.st11{fill:#555656;}
	.st12{fill:#505151;}
	.st13{fill:#585959;}
	.st14{fill:#565757;}
	.st15{fill:#282929;}
	.st16{fill:#2D2E2E;}
	.st17{fill:#0D0D0D;}
	.st18{fill:#070707;}
	.st19{fill:#262728;}
	.st20{fill:#0F0F0F;}
	.st21{fill:#303131;}
	.st22{fill:#464747;}
	.st23{fill:#5C5D5D;}
	.st24{fill:#5A5B5B;}
	.st25{fill:#313233;}
	.st26{fill:#353636;}
	.st27{fill:#363737;}
	.st28{fill:#333434;}
	.st29{fill:#383939;}
	.st30{fill:#0C0C0C;}
	.st31{fill:#131414;}
	.st32{fill:#0A0C0C;}
	.st33{fill:#060606;}
	.st34{fill:#0F1010;}
	.st35{fill:#101010;}
	.st36{opacity:0.51;fill:url(#SVGID_3_);enable-background:new    ;}
	.st37{fill:url(#SVGID_4_);}
	.st38{fill:url(#SVGID_5_);}
	.st39{fill:#1A1A1A;}
	.st40{fill:#474747;}
	.st41{fill:#1D1D1D;}
	.st42{fill:#5B5C5D;}
	.st43{fill:#020202;}
	.st44{fill:url(#SVGID_6_);}
	.st45{fill:url(#SVGID_7_);}
	.st46{fill:#010101;}
	.st47{fill:url(#SVGID_8_);}
	.st48{fill:url(#SVGID_9_);}
	.st49{opacity:0.51;fill:url(#SVGID_10_);enable-background:new    ;}
	.st50{fill:url(#SVGID_11_);}
	.st51{fill:url(#SVGID_12_);}
	.st52{fill:#C11E1E;}
	.st53{fill:none;}
	.st54{font-family:'ArialMT';}
	.st55{font-size:410px;}
</style>
<g id="microphoneoff">
	<g id="m">
		<g id="dots">
			<path class="st0" d="M453.3,1429.5h287.8v-119.8c0,0,2.2-96.3-125.1-126.2c0,0-118.4-21-162.7,115.1L453.3,1429.5L453.3,1429.5z"
				/>
			<ellipse class="st1" cx="481.6" cy="1321.8" rx="9.3" ry="15.9"/>
			<ellipse class="st1" cx="501.7" cy="1285" rx="10.7" ry="15.4"/>
			<ellipse class="st1" cx="546.8" cy="1287.4" rx="14.8" ry="13.1"/>
			<ellipse class="st1" cx="598.7" cy="1282.7" rx="15.4" ry="13.1"/>
			<ellipse class="st1" cx="647.1" cy="1285" rx="15.5" ry="15.4"/>
			<ellipse class="st1" cx="693.4" cy="1285" rx="11.2" ry="15.4"/>
			<ellipse class="st1" cx="669.1" cy="1247.7" rx="13.1" ry="12.6"/>
			<ellipse class="st1" cx="622" cy="1242.1" rx="16.3" ry="12.6"/>
			<ellipse class="st1" cx="647.1" cy="1217.4" rx="15.5" ry="12.1"/>
			<ellipse class="st1" cx="598.7" cy="1211.3" rx="15.4" ry="10.7"/>
			<ellipse class="st1" cx="573.5" cy="1242.1" rx="17.3" ry="12.6"/>
			<ellipse class="st1" cx="546.8" cy="1220.4" rx="14.8" ry="9.1"/>
			<ellipse class="st1" cx="526.8" cy="1247.7" rx="14.5" ry="12.6"/>
			<ellipse class="st1" cx="526.8" cy="1319.5" rx="14.5" ry="13.6"/>
			<ellipse class="st1" cx="573.5" cy="1319.5" rx="17.3" ry="13.6"/>
			<ellipse class="st1" cx="622" cy="1319.5" rx="16.3" ry="13.6"/>
			<ellipse class="st1" cx="671" cy="1319.5" rx="14.9" ry="13.6"/>
			<ellipse class="st1" cx="715.8" cy="1319.5" rx="7.5" ry="13.6"/>
			<ellipse class="st1" cx="497" cy="1359.6" rx="15.4" ry="13.5"/>
			<ellipse class="st1" cx="546.8" cy="1354.5" rx="14.8" ry="12.1"/>
			<ellipse class="st1" cx="598.7" cy="1359.6" rx="15.4" ry="13.5"/>
			<circle class="st1" cx="653.7" cy="1357.8" r="15.4"/>
			<ellipse class="st1" cx="702.7" cy="1357.8" rx="9.3" ry="15.4"/>
			<ellipse class="st1" cx="713" cy="1394.6" rx="10.3" ry="13.1"/>
			<ellipse class="st1" cx="673.5" cy="1392.8" rx="19.8" ry="11.2"/>
			<ellipse class="st1" cx="622" cy="1394.6" rx="16.3" ry="13.1"/>
			<ellipse class="st1" cx="573.5" cy="1392.3" rx="17.3" ry="15.4"/>
			<ellipse class="st1" cx="526.8" cy="1390.4" rx="14.5" ry="13.5"/>
			<ellipse class="st1" cx="484.6" cy="1392.3" rx="12.4" ry="15.4"/>
		</g>
		<linearGradient id="SVGID_1_" gradientUnits="userSpaceOnUse" x1="797.373" y1="1480.488" x2="809.7855" y2="1480.488">
			<stop  offset="0" style="stop-color:#FFFFFF"/>
			<stop  offset="0.1921" style="stop-color:#000000"/>
			<stop  offset="0.4969" style="stop-color:#020202"/>
			<stop  offset="0.6066" style="stop-color:#090909"/>
			<stop  offset="0.6849" style="stop-color:#141414"/>
			<stop  offset="0.7482" style="stop-color:#252525"/>
			<stop  offset="0.8024" style="stop-color:#3B3B3B"/>
			<stop  offset="0.8504" style="stop-color:#575757"/>
			<stop  offset="0.8939" style="stop-color:#777777"/>
			<stop  offset="0.9338" style="stop-color:#9D9D9D"/>
			<stop  offset="0.9693" style="stop-color:#C6C6C6"/>
			<stop  offset="1" style="stop-color:#F0F0F0"/>
			<stop  offset="1" style="stop-color:#FCFCFC"/>
		</linearGradient>
		<path class="st2" d="M797.4,1459.3v42.2c0,0,12.7,3.4,12.2-18.8C809.5,1482.8,812.5,1458.7,797.4,1459.3z"/>
		<path class="st3" d="M785.4,1524.5H404.8c-6.6,0-12-5.4-12-12v-59.3c0-6.6,5.4-12,12-12h380.6c6.6,0,12,5.4,12,12v59.3
			C797.4,1519.1,792,1524.5,785.4,1524.5z"/>
		<path class="st4" d="M745.9,1531.8H448.5c-6.6,0-12-5.4-12-12v-78.3c0-6.6,5.4-12,12-12h297.4c6.6,0,12,5.4,12,12v78.3
			C757.9,1526.4,752.5,1531.8,745.9,1531.8z"/>
		<path class="st5" d="M451.1,1531.8h287.8V1633c0,0-20.7,95.2-114.9,110.1c0,0-125.6,29.9-172.9-112.9L451.1,1531.8L451.1,1531.8z"
			/>
		<path class="st6" d="M471.6,1531.8h249.3v92.6c0,0-18,87.1-99.6,100.7c0,0-108.8,27.3-149.8-103.3L471.6,1531.8L471.6,1531.8z"/>
		<path class="st7" d="M499.2,1531.8H706v87c0,0-14.9,81.7-82.6,94.6c0,0-90.2,25.6-124.2-97L499.2,1531.8L499.2,1531.8z"/>
		<path class="st4" d="M410.4,1524.5h22.2v99.6c0,0,7.9,74.5,60.9,109.8c0,0,94,72.9,194.8,8c0,0,61.9-34.2,69.7-112.7v-104.7h23.1
			v101.8c0,0-11.4,97.4-83.1,133.8c0,0-105.3,72.5-218.6-11.3c0,0-58.6-38.2-68.9-120.2L410.4,1524.5L410.4,1524.5z"/>
		<path class="st8" d="M617.4,1840h-46.1c-6.6,0-12-5.4-12-12v-62.2c0-6.6,5.4-12,12-12h46.1c6.6,0,12,5.4,12,12v62.2
			C629.4,1834.6,624,1840,617.4,1840z"/>
		<path class="st5" d="M760.5,1864.8H435.4c-6.6,0-12-5.4-12-12v-16.9c0-6.6,5.4-12,12-12h325.1c6.6,0,12,5.4,12,12v16.9
			C772.5,1859.4,767.1,1864.8,760.5,1864.8z"/>
		<path class="st3" d="M769.3,1889.7h-347c-6.6,0-12-5.4-12-12V1852c0-6.6,5.4-12,12-12h347c6.6,0,12,5.4,12,12v25.7
			C781.3,1884.3,775.9,1889.7,769.3,1889.7z"/>
		<linearGradient id="SVGID_2_" gradientUnits="userSpaceOnUse" x1="381.3459" y1="1480.5542" x2="392.7446" y2="1480.5542">
			<stop  offset="0" style="stop-color:#FFFFFF"/>
			<stop  offset="0.1921" style="stop-color:#000000"/>
			<stop  offset="0.4969" style="stop-color:#020202"/>
			<stop  offset="0.6066" style="stop-color:#090909"/>
			<stop  offset="0.6849" style="stop-color:#141414"/>
			<stop  offset="0.7482" style="stop-color:#252525"/>
			<stop  offset="0.8024" style="stop-color:#3B3B3B"/>
			<stop  offset="0.8504" style="stop-color:#575757"/>
			<stop  offset="0.8939" style="stop-color:#777777"/>
			<stop  offset="0.9338" style="stop-color:#9D9D9D"/>
			<stop  offset="0.9693" style="stop-color:#C6C6C6"/>
			<stop  offset="1" style="stop-color:#F0F0F0"/>
			<stop  offset="1" style="stop-color:#FCFCFC"/>
		</linearGradient>
		<path class="st9" d="M392.7,1459.5c0,0-11.4-2.7-11.4,21.2c0,0-1.2,20.4,11.4,21V1459.5z"/>
	</g>
</g>
<g id="microphoneon">
	<g id="m1">
		<g id="dots1">
			<ellipse class="st10" cx="481.6" cy="1321.8" rx="9.3" ry="15.9"/>
			<ellipse class="st11" cx="501.7" cy="1285" rx="10.7" ry="15.4"/>
			<ellipse class="st12" cx="546.8" cy="1287.4" rx="14.8" ry="13.1"/>
			<ellipse class="st7" cx="598.7" cy="1282.7" rx="15.4" ry="13.1"/>
			<ellipse class="st13" cx="647.1" cy="1285" rx="15.5" ry="15.4"/>
			<ellipse class="st14" cx="693.4" cy="1285" rx="11.2" ry="15.4"/>
			<ellipse class="st15" cx="669.1" cy="1247.7" rx="13.1" ry="12.6"/>
			<ellipse class="st16" cx="622" cy="1242.1" rx="16.3" ry="12.6"/>
			<ellipse class="st17" cx="647.1" cy="1217.4" rx="15.5" ry="12.1"/>
			<ellipse class="st18" cx="598.7" cy="1211.3" rx="15.4" ry="10.7"/>
			<ellipse class="st19" cx="573.5" cy="1242.1" rx="17.3" ry="12.6"/>
			<ellipse class="st20" cx="546.8" cy="1220.4" rx="14.8" ry="9.1"/>
			<ellipse class="st21" cx="526.8" cy="1247.7" rx="14.5" ry="12.6"/>
			<ellipse class="st22" cx="526.8" cy="1319.5" rx="14.5" ry="13.6"/>
			<ellipse class="st6" cx="573.5" cy="1319.5" rx="17.3" ry="13.6"/>
			<ellipse class="st23" cx="622" cy="1319.5" rx="16.3" ry="13.6"/>
			<ellipse class="st24" cx="671" cy="1319.5" rx="14.9" ry="13.6"/>
			<ellipse class="st24" cx="715.8" cy="1319.5" rx="7.5" ry="13.6"/>
			<ellipse class="st25" cx="497" cy="1359.6" rx="15.4" ry="13.5"/>
			<ellipse class="st26" cx="546.8" cy="1354.5" rx="14.8" ry="12.1"/>
			<ellipse class="st27" cx="598.7" cy="1359.6" rx="15.4" ry="13.5"/>
			<circle class="st28" cx="653.7" cy="1357.8" r="15.4"/>
			<ellipse class="st29" cx="702.7" cy="1357.8" rx="9.3" ry="15.4"/>
			<ellipse class="st30" cx="713" cy="1394.6" rx="10.3" ry="13.1"/>
			<ellipse class="st31" cx="673.5" cy="1392.8" rx="19.8" ry="11.2"/>
			<ellipse class="st32" cx="622" cy="1394.6" rx="16.3" ry="13.1"/>
			<ellipse class="st33" cx="573.5" cy="1392.3" rx="17.3" ry="15.4"/>
			<ellipse class="st34" cx="526.8" cy="1390.4" rx="14.5" ry="13.5"/>
			<ellipse class="st35" cx="484.6" cy="1392.3" rx="12.4" ry="15.4"/>
		</g>
		<linearGradient id="SVGID_3_" gradientUnits="userSpaceOnUse" x1="739.1193" y1="1349.8932" x2="452.5397" y2="1289.0742">
			<stop  offset="0" style="stop-color:#FFFFFF"/>
			<stop  offset="0.1379" style="stop-color:#000000"/>
		</linearGradient>
		<path class="st36" d="M453.3,1429.5h287.8v-119.8c0,0,2.2-96.3-125.1-126.2c0,0-118.4-21-162.7,115.1L453.3,1429.5L453.3,1429.5z"
			/>
		<linearGradient id="SVGID_4_" gradientUnits="userSpaceOnUse" x1="797.373" y1="1480.488" x2="809.7855" y2="1480.488">
			<stop  offset="0" style="stop-color:#FFFFFF"/>
			<stop  offset="0.1921" style="stop-color:#000000"/>
			<stop  offset="0.4969" style="stop-color:#020202"/>
			<stop  offset="0.6066" style="stop-color:#090909"/>
			<stop  offset="0.6849" style="stop-color:#141414"/>
			<stop  offset="0.7482" style="stop-color:#252525"/>
			<stop  offset="0.8024" style="stop-color:#3B3B3B"/>
			<stop  offset="0.8504" style="stop-color:#575757"/>
			<stop  offset="0.8939" style="stop-color:#777777"/>
			<stop  offset="0.9338" style="stop-color:#9D9D9D"/>
			<stop  offset="0.9693" style="stop-color:#C6C6C6"/>
			<stop  offset="1" style="stop-color:#F0F0F0"/>
			<stop  offset="1" style="stop-color:#FCFCFC"/>
		</linearGradient>
		<path class="st37" d="M797.4,1459.3v42.2c0,0,12.7,3.4,12.2-18.8C809.5,1482.8,812.5,1458.7,797.4,1459.3z"/>
		<path d="M760.5,1864.8H435.4c-6.6,0-12-5.4-12-12v-16.9c0-6.6,5.4-12,12-12h325.1c6.6,0,12,5.4,12,12v16.9
			C772.5,1859.4,767.1,1864.8,760.5,1864.8z"/>
		<linearGradient id="SVGID_5_" gradientUnits="userSpaceOnUse" x1="594.1816" y1="1431.0104" x2="595.8199" y2="1523.4768">
			<stop  offset="0" style="stop-color:#FFFFFF"/>
			<stop  offset="0.8067" style="stop-color:#000000"/>
			<stop  offset="0.9992" style="stop-color:#000000"/>
		</linearGradient>
		<path class="st38" d="M785.4,1524.5H404.8c-6.6,0-12-5.4-12-12v-59.3c0-6.6,5.4-12,12-12h380.6c6.6,0,12,5.4,12,12v59.3
			C797.4,1519.1,792,1524.5,785.4,1524.5z"/>
		<path class="st39" d="M745.9,1531.8H448.5c-6.6,0-12-5.4-12-12v-78.3c0-6.6,5.4-12,12-12h297.4c6.6,0,12,5.4,12,12v78.3
			C757.9,1526.4,752.5,1531.8,745.9,1531.8z"/>
		<path class="st40" d="M769.3,1889.7h-347c-6.6,0-12-5.4-12-12V1852c0-6.6,5.4-12,12-12h347c6.6,0,12,5.4,12,12v25.7
			C781.3,1884.3,775.9,1889.7,769.3,1889.7z"/>
		<path class="st41" d="M451.1,1531.8h287.8V1633c0,0-20.7,95.2-114.9,110.1c0,0-125.6,29.9-172.9-112.9L451.1,1531.8L451.1,1531.8z
			"/>
		<path class="st42" d="M471.6,1531.8h249.3v92.6c0,0-18,87.1-99.6,100.7c0,0-108.8,27.3-149.8-103.3L471.6,1531.8L471.6,1531.8z"/>
		<path class="st43" d="M499.2,1531.8H706v87c0,0-14.9,81.7-82.6,94.6c0,0-90.2,25.6-124.2-97L499.2,1531.8L499.2,1531.8z"/>
		<linearGradient id="SVGID_6_" gradientUnits="userSpaceOnUse" x1="381.3459" y1="1480.5542" x2="392.7446" y2="1480.5542">
			<stop  offset="0" style="stop-color:#FFFFFF"/>
			<stop  offset="0.1921" style="stop-color:#000000"/>
			<stop  offset="0.4969" style="stop-color:#020202"/>
			<stop  offset="0.6066" style="stop-color:#090909"/>
			<stop  offset="0.6849" style="stop-color:#141414"/>
			<stop  offset="0.7482" style="stop-color:#252525"/>
			<stop  offset="0.8024" style="stop-color:#3B3B3B"/>
			<stop  offset="0.8504" style="stop-color:#575757"/>
			<stop  offset="0.8939" style="stop-color:#777777"/>
			<stop  offset="0.9338" style="stop-color:#9D9D9D"/>
			<stop  offset="0.9693" style="stop-color:#C6C6C6"/>
			<stop  offset="1" style="stop-color:#F0F0F0"/>
			<stop  offset="1" style="stop-color:#FCFCFC"/>
		</linearGradient>
		<path class="st44" d="M392.7,1459.5c0,0-11.4-2.7-11.4,21.2c0,0-1.2,20.4,11.4,21V1459.5z"/>
		<linearGradient id="SVGID_7_" gradientUnits="userSpaceOnUse" x1="410.4" y1="1656.8591" x2="781.1" y2="1656.8591">
			<stop  offset="0" style="stop-color:#FFFFFF"/>
			<stop  offset="0.1921" style="stop-color:#000000"/>
			<stop  offset="0.4969" style="stop-color:#020202"/>
			<stop  offset="0.6066" style="stop-color:#090909"/>
			<stop  offset="0.6849" style="stop-color:#141414"/>
			<stop  offset="0.7482" style="stop-color:#252525"/>
			<stop  offset="0.8024" style="stop-color:#3B3B3B"/>
			<stop  offset="0.8504" style="stop-color:#575757"/>
			<stop  offset="0.8939" style="stop-color:#777777"/>
			<stop  offset="0.9338" style="stop-color:#9D9D9D"/>
			<stop  offset="0.9693" style="stop-color:#C6C6C6"/>
			<stop  offset="1" style="stop-color:#F0F0F0"/>
			<stop  offset="1" style="stop-color:#FCFCFC"/>
		</linearGradient>
		<path class="st45" d="M410.4,1524.5h22.2v99.6c0,0,7.9,74.5,60.9,109.8c0,0,94,72.9,194.8,8c0,0,61.9-34.2,69.7-112.7v-104.7h23.1
			v101.8c0,0-11.4,97.4-83.1,133.8c0,0-105.3,72.5-218.6-11.3c0,0-58.6-38.2-68.9-120.2L410.4,1524.5L410.4,1524.5z"/>
		<path class="st46" d="M617.4,1840h-46.1c-6.6,0-12-5.4-12-12v-62.2c0-6.6,5.4-12,12-12h46.1c6.6,0,12,5.4,12,12v62.2
			C629.4,1834.6,624,1840,617.4,1840z"/>
	</g>
</g>
<g id="microphonedisabled">
	<g id="m2">
		<g id="dots2">
			<ellipse class="st10" cx="481.6" cy="1320.7" rx="9.3" ry="15.9"/>
			<ellipse class="st11" cx="501.7" cy="1283.9" rx="10.7" ry="15.4"/>
			<ellipse class="st12" cx="546.8" cy="1286.3" rx="14.8" ry="13.1"/>
			<ellipse class="st7" cx="598.7" cy="1281.6" rx="15.4" ry="13.1"/>
			<ellipse class="st13" cx="647.1" cy="1283.9" rx="15.5" ry="15.4"/>
			<ellipse class="st14" cx="693.4" cy="1283.9" rx="11.2" ry="15.4"/>
			<ellipse class="st15" cx="669.1" cy="1246.6" rx="13.1" ry="12.6"/>
			<ellipse class="st16" cx="622" cy="1241" rx="16.3" ry="12.6"/>
			<ellipse class="st17" cx="647.1" cy="1216.3" rx="15.5" ry="12.1"/>
			<ellipse class="st18" cx="598.7" cy="1210.2" rx="15.4" ry="10.7"/>
			<ellipse class="st19" cx="573.5" cy="1241" rx="17.3" ry="12.6"/>
			<ellipse class="st20" cx="546.8" cy="1219.3" rx="14.8" ry="9.1"/>
			<ellipse class="st21" cx="526.8" cy="1246.6" rx="14.5" ry="12.6"/>
			<ellipse class="st22" cx="526.8" cy="1318.4" rx="14.5" ry="13.6"/>
			<ellipse class="st6" cx="573.5" cy="1318.4" rx="17.3" ry="13.6"/>
			<ellipse class="st23" cx="622" cy="1318.4" rx="16.3" ry="13.6"/>
			<ellipse class="st24" cx="671" cy="1318.4" rx="14.9" ry="13.6"/>
			<ellipse class="st24" cx="715.8" cy="1318.4" rx="7.5" ry="13.6"/>
			<ellipse class="st25" cx="497" cy="1358.5" rx="15.4" ry="13.5"/>
			<ellipse class="st26" cx="546.8" cy="1353.4" rx="14.8" ry="12.1"/>
			<ellipse class="st27" cx="598.7" cy="1358.5" rx="15.4" ry="13.5"/>
			<circle class="st28" cx="653.7" cy="1356.7" r="15.4"/>
			<ellipse class="st29" cx="702.7" cy="1356.7" rx="9.3" ry="15.4"/>
			<ellipse class="st30" cx="713" cy="1393.5" rx="10.3" ry="13.1"/>
			<ellipse class="st31" cx="673.5" cy="1391.7" rx="19.8" ry="11.2"/>
			<ellipse class="st32" cx="622" cy="1393.5" rx="16.3" ry="13.1"/>
			<ellipse class="st33" cx="573.5" cy="1391.2" rx="17.3" ry="15.4"/>
			<ellipse class="st34" cx="526.8" cy="1389.3" rx="14.5" ry="13.5"/>
			<ellipse class="st35" cx="484.6" cy="1391.2" rx="12.4" ry="15.4"/>
		</g>
		<path class="st41" d="M451.1,1530.7h287.8v101.2c0,0-20.7,95.2-114.9,110.1c0,0-125.6,29.9-172.9-112.9L451.1,1530.7L451.1,1530.7
			z"/>
		<path class="st42" d="M471.6,1530.7h249.3v92.6c0,0-18,87.1-99.6,100.7c0,0-108.8,27.3-149.8-103.3L471.6,1530.7L471.6,1530.7z"/>
		<path class="st43" d="M499.2,1530.7H706v87c0,0-14.9,81.7-82.6,94.6c0,0-90.2,25.6-124.2-97L499.2,1530.7L499.2,1530.7z"/>
		<linearGradient id="SVGID_8_" gradientUnits="userSpaceOnUse" x1="797.353" y1="1479.3881" x2="809.7655" y2="1479.3881">
			<stop  offset="0" style="stop-color:#FFFFFF"/>
			<stop  offset="0.1921" style="stop-color:#000000"/>
			<stop  offset="0.4969" style="stop-color:#020202"/>
			<stop  offset="0.6066" style="stop-color:#090909"/>
			<stop  offset="0.6849" style="stop-color:#141414"/>
			<stop  offset="0.7482" style="stop-color:#252525"/>
			<stop  offset="0.8024" style="stop-color:#3B3B3B"/>
			<stop  offset="0.8504" style="stop-color:#575757"/>
			<stop  offset="0.8939" style="stop-color:#777777"/>
			<stop  offset="0.9338" style="stop-color:#9D9D9D"/>
			<stop  offset="0.9693" style="stop-color:#C6C6C6"/>
			<stop  offset="1" style="stop-color:#F0F0F0"/>
			<stop  offset="1" style="stop-color:#FCFCFC"/>
		</linearGradient>
		<path class="st47" d="M797.4,1458.2v42.2c0,0,12.7,3.4,12.2-18.8C809.5,1481.7,812.5,1457.6,797.4,1458.2z"/>
		<path d="M760.5,1863.7H435.4c-6.6,0-12-5.4-12-12v-16.9c0-6.6,5.4-12,12-12h325.1c6.6,0,12,5.4,12,12v16.9
			C772.5,1858.3,767.1,1863.7,760.5,1863.7z"/>
		<linearGradient id="SVGID_9_" gradientUnits="userSpaceOnUse" x1="594.1818" y1="1429.9265" x2="595.8201" y2="1522.3928">
			<stop  offset="0" style="stop-color:#FFFFFF"/>
			<stop  offset="0.8067" style="stop-color:#000000"/>
			<stop  offset="0.9992" style="stop-color:#000000"/>
		</linearGradient>
		<path class="st48" d="M785.4,1523.4H404.8c-6.6,0-12-5.4-12-12v-59.3c0-6.6,5.4-12,12-12h380.6c6.6,0,12,5.4,12,12v59.3
			C797.4,1518,792,1523.4,785.4,1523.4z"/>
		<path class="st39" d="M745.9,1530.7H448.5c-6.6,0-12-5.4-12-12v-78.3c0-6.6,5.4-12,12-12h297.4c6.6,0,12,5.4,12,12v78.3
			C757.9,1525.3,752.5,1530.7,745.9,1530.7z"/>
		<linearGradient id="SVGID_10_" gradientUnits="userSpaceOnUse" x1="739.1034" y1="1348.7899" x2="452.5238" y2="1287.9708">
			<stop  offset="0" style="stop-color:#FFFFFF"/>
			<stop  offset="0.1379" style="stop-color:#000000"/>
		</linearGradient>
		<path class="st49" d="M453.3,1428.4h287.8v-119.8c0,0,2.2-96.3-125.1-126.2c0,0-118.4-21-162.7,115.1L453.3,1428.4L453.3,1428.4z"
			/>
		<path class="st40" d="M769.3,1888.6h-347c-6.6,0-12-5.4-12-12v-25.7c0-6.6,5.4-12,12-12h347c6.6,0,12,5.4,12,12v25.7
			C781.3,1883.2,775.9,1888.6,769.3,1888.6z"/>
		<linearGradient id="SVGID_11_" gradientUnits="userSpaceOnUse" x1="381.3259" y1="1479.4542" x2="392.7246" y2="1479.4542">
			<stop  offset="0" style="stop-color:#FFFFFF"/>
			<stop  offset="0.1921" style="stop-color:#000000"/>
			<stop  offset="0.4969" style="stop-color:#020202"/>
			<stop  offset="0.6066" style="stop-color:#090909"/>
			<stop  offset="0.6849" style="stop-color:#141414"/>
			<stop  offset="0.7482" style="stop-color:#252525"/>
			<stop  offset="0.8024" style="stop-color:#3B3B3B"/>
			<stop  offset="0.8504" style="stop-color:#575757"/>
			<stop  offset="0.8939" style="stop-color:#777777"/>
			<stop  offset="0.9338" style="stop-color:#9D9D9D"/>
			<stop  offset="0.9693" style="stop-color:#C6C6C6"/>
			<stop  offset="1" style="stop-color:#F0F0F0"/>
			<stop  offset="1" style="stop-color:#FCFCFC"/>
		</linearGradient>
		<path class="st50" d="M392.7,1458.4c0,0-11.4-2.7-11.4,21.2c0,0-1.2,20.4,11.4,21V1458.4z"/>
		<linearGradient id="SVGID_12_" gradientUnits="userSpaceOnUse" x1="410.4" y1="1655.7592" x2="781.1" y2="1655.7592">
			<stop  offset="0" style="stop-color:#FFFFFF"/>
			<stop  offset="0.1921" style="stop-color:#000000"/>
			<stop  offset="0.4969" style="stop-color:#020202"/>
			<stop  offset="0.6066" style="stop-color:#090909"/>
			<stop  offset="0.6849" style="stop-color:#141414"/>
			<stop  offset="0.7482" style="stop-color:#252525"/>
			<stop  offset="0.8024" style="stop-color:#3B3B3B"/>
			<stop  offset="0.8504" style="stop-color:#575757"/>
			<stop  offset="0.8939" style="stop-color:#777777"/>
			<stop  offset="0.9338" style="stop-color:#9D9D9D"/>
			<stop  offset="0.9693" style="stop-color:#C6C6C6"/>
			<stop  offset="1" style="stop-color:#F0F0F0"/>
			<stop  offset="1" style="stop-color:#FCFCFC"/>
		</linearGradient>
		<path class="st51" d="M410.4,1523.4h22.2v99.6c0,0,7.9,74.5,60.9,109.8c0,0,94,72.9,194.8,8c0,0,61.9-34.2,69.7-112.7v-104.7h23.1
			v101.8c0,0-11.4,97.4-83.1,133.8c0,0-105.3,72.5-218.6-11.3c0,0-58.6-38.2-68.9-120.2L410.4,1523.4L410.4,1523.4z"/>
		<path class="st46" d="M617.4,1838.9h-46.1c-6.6,0-12-5.4-12-12v-62.2c0-6.6,5.4-12,12-12h46.1c6.6,0,12,5.4,12,12v62.2
			C629.4,1833.5,624,1838.9,617.4,1838.9z"/>
		<path class="st52" d="M706.8,1833.4l-104.2-122.7c-4.3-5-3.7-12.6,1.4-16.9l10.6-9c5-4.3,12.6-3.7,16.9,1.4l104.2,122.7
			c4.3,5,3.7,12.6-1.4,16.9l-10.6,9C718.7,1839,711,1838.4,706.8,1833.4z"/>
		<rect x="553.9" y="1578.4" class="st53" width="279.1" height="332.5"/>
		<text transform="matrix(1 0 0 1 553.8511 1869.4908)" class="st52 st54 st55">o</text>
	</g>
</g>
</svg>
