<?xml version="1.0" encoding="utf-8"?>
<!-- Generator: Adobe Illustrator 19.1.0, SVG Export Plug-In . SVG Version: 6.00 Build 0)  -->
<svg version="1.1" id="HP" xmlns="http://www.w3.org/2000/svg" xmlns:xlink="http://www.w3.org/1999/xlink" x="0px" y="0px"
	 viewBox="-632 561.6 733.7 879.4" style="enable-background:new -632 561.6 733.7 879.4;" xml:space="preserve">
<style type="text/css">
	.st0{fill:#545153;}
	.st1{fill:#999999;}
	.st2{fill:#4F4F4F;}
	.st3{fill:#292D2C;stroke:#000000;stroke-width:3;stroke-miterlimit:10;}
	.st4{fill:#302E2F;}
	.st5{fill:#200202;}
	.st6{fill:#060606;stroke:#000000;stroke-width:3;stroke-miterlimit:10;}
	.st7{fill:#756B72;}
	.st8{fill:#535353;}
	.st9{fill:#1C1C1C;}
	.st10{fill:#100202;}
	.st11{fill:#A6021A;}
	.st12{fill:#E13552;}
	.st13{fill:#B50023;}
	.st14{fill:#E21245;}
	.st15{fill:#E62B4A;}
	.st16{fill:#464747;}
</style>
<g id="headphoneoff_3_">
	<g id="h">
		<path class="st0" d="M-434.7,1297.7c0,0,36.9-61.2-39.3-174.3c0,0-13.5-71.6-6-129.8c0,0,5.4-238.1,173.5-309.5
			c0,0,184.5-84.1,267.8,111.6c0,0,42.4,120.8-5.7,277.1c0,0-9,35.5,0.5,48.8c0,0,15.5,54.8-30.4,115.9c0,0-29,40.9-65.9,37
			c0,0,96.1-34.1,87.2-146.9c0,0-14.2-23.3-2.3-58.4c0,0,54.3-147.6-5-298.9c0,0-62.4-121.4-212.4-85.3c0,0-159.8,29.4-189.1,245.4
			c0,0-16.4,102.6-5.3,162.5c0,0-1,22,16.1,42.8c0,0,38.1,44.7,39.7,108.2C-411.4,1243.8-408.8,1289.3-434.7,1297.7z"/>
		<path class="st1" d="M-527.9,1119c0,0-25.3,53.6,11.8,124.9c0,0,38.7,75.5,79,58c0,0,49-53.4-29.4-174.6c0,0-22.7-59.7-6.2-173.9
			c0,0,8-102.6,70.5-192.3c0,0,44.2-59.7,106.1-81.4c0,0,58.4-17.4,85-14c0,0-95.4-23.3-169.6,28.9
			c-74.2,52.2-102.1,111-119.9,165.6c-17.8,54.7-28.3,146-24.6,176.2C-525.2,1036.4-516.2,1114.4-527.9,1119z"/>
		<path class="st1" d="M-427,1296.3c0,0,15.7,18.2,39.7,4.7c0,0,22.8-29.5,5.5-99.4c0,0-13.1-63.7-42.9-98.9
			c0,0-30.5-39.3-41.1-35.2c0,0,1.2,41.1,4.5,43.9c3.3,2.9,31.2,31.5,42.1,53.9c0,0,35.5,78.2,5.8,111.1
			C-413.4,1276.5-422.3,1295.7-427,1296.3z"/>
		<path class="st0" d="M-469.4,1057.8l-0.3,9.4c0,0,16.9-4.1,54.7,51.9c0,0,36,61.9,38.5,131.4c0,0,0.2,32.3-11.3,51.2
			c0,0,4.8-0.9,7-4.1s0,0,0,0s23.5-26.6,12.1-79.2c0,0-10-69-41.5-113.5C-410.2,1104.8-434.4,1064.1-469.4,1057.8z"/>
		<path class="st2" d="M-374.1,1292.6c0,0,27.7-34.3-1.2-131.1c0,0-27.9-69.1-40.3-78.5c0,0-27.9-31.3-48.8-29.9
			c0,0,43.3-19.6,82.5,36.4c0,0,39.1,51.4,39,126.7C-342.9,1216.2-343.7,1267.1-374.1,1292.6z"/>
		<path class="st3" d="M-429.9,1299.2c0,0,35.8-60.7-37.7-171.2c0,0-13-70.3-5.7-127.7c0,0,5.5-234.4,168.2-307
			c0,0,178.5-85.2,258.8,106.4c0,0,40.8,118.3-5.9,272.9c0,0-8.7,35,0.4,48c0,0,14.9,53.8-29.5,114.6c0,0-28.1,40.6-63.8,37.3
			c0,0,92.9-34.9,84.5-145.8c0,0-13.7-22.7-2.1-57.5c0,0,52.7-146.1-4.4-294.1c0,0-60.1-118.7-205.3-81.1c0,0-154.6,31-183.2,244.1
			c0,0-16.1,101.1-5.5,160c0,0-1,21.7,15.4,41.8c0,0,36.8,43.5,38.2,106.1C-407.3,1245.9-404.8,1290.7-429.9,1299.2z"/>
		<path class="st4" d="M-474.1,1057c0,0,57.5,6.7,90.8,115.3c0,0,31.5,84.6-2.7,125.7c0,0,5.4,1.8,9.7-2.3c0,0,52.5-49.2-27-198.6
			C-403.2,1097.1-442.4,1040.6-474.1,1057z"/>
		<path class="st5" d="M-459.2,1113.7c0,0,41.1,32.9,51.8,81.2c0,0,18.6,53.5-2,80.1c0,0,8.7-44.7-10.2-90.4
			c0,0-12.6-31.5-22.2-40.4C-442,1144.2-454.8,1129.2-459.2,1113.7z"/>
		<path class="st6" d="M-223.5,676.7c0,0,118.4,4.3,155.5,105.3c0,0,36.7,72.3,25.2,189.3c-11.4,117,0,0,0,0s-11.9,74.7-24,106.7
			c0,0-3.9,34.4,5.9,50.7c10,16.3,1.1-0.3,1.1-0.3s16.4,104.1-91.7,151.1c0,0,57.1-32.3,77.6-123.7c0,0,15.6-88.8-34.1-113.9
			c0,0,28.5-146,14.5-182.5C-93.5,859.5-100.9,712.6-223.5,676.7"/>
		<path class="st7" d="M-189.5,1279.8c0,0,61.8-10.9,86.1-102.2c0,0,30.1-91.8-8-136.7c0,0,36.7,17.6,29.7,77.6
			c0,0-3.9,75.5-40.3,124.8C-122.1,1243.4-160.1,1294.6-189.5,1279.8z"/>
		<path class="st1" d="M-181.1,1283.3c0,0,42.2-1.7,78.3-81.8c0,0,46.8-112.5-0.9-157.4c0,0,37.1,13.9,30.9,87.4
			c0,0-2.7,41.4-9.6,56.3c0,0-17.3,39.1-24.9,49.8C-107.3,1237.7-144.9,1292.8-181.1,1283.3z"/>
		<path class="st8" d="M-100,1175.1c-20.3,69.1-66.9,116.6-104.1,106s-50.9-75.2-30.5-144.4c20.4-69.2,66.9-116.6,104.1-106
			C-93.3,1041.3-79.7,1106-100,1175.1z"/>
		<path class="st9" d="M-192,1114.9c0,0,27.5-48.8,44.5-19.1c0,0,13.5,40.1-31.5,107.9c0,0-26.1,37.7-35.6,1.4
			C-214.7,1205.1-221.1,1170.6-192,1114.9z"/>
		<path class="st10" d="M-504.3,1158.4c0,0,21.9-17.3,45.8,42.8c0,0,23.7,64.3-13.2,66.7c0,0-14.3,5.8-35.5-37.5
			C-507.1,1230.5-533,1169.4-504.3,1158.4z"/>
		<path class="st0" d="M-505.9,1161.4c0,0,20.5-17,41.8,40.4c0,0,21,61.4-13.1,64.2c0,0-13.3,5.7-32.2-35.5
			C-509.5,1230.6-532.6,1172.4-505.9,1161.4z"/>
	</g>
</g>
<g id="headphoneon_2_">
	<g id="h1">
		<path class="st11" d="M-435.3,1297.6c0,0,36.9-61.2-39.3-174.3c0,0-13.5-71.6-6-129.8c0,0,5.4-238.1,173.5-309.5
			c0,0,184.5-84.1,267.8,111.6c0,0,42.4,120.8-5.7,277.1c0,0-9,35.5,0.5,48.8c0,0,15.5,54.8-30.4,115.9c0,0-29,40.9-65.9,37
			c0,0,96.1-34.1,87.2-146.9c0,0-14.2-23.3-2.3-58.4c0,0,54.3-147.6-5-298.9c0,0-62.4-121.4-212.4-85.3c0,0-159.8,29.4-189.1,245.4
			c0,0-16.4,102.6-5.3,162.5c0,0-1,22,16.1,42.8c0,0,38.1,44.7,39.7,108.2C-412,1243.7-409.4,1289.3-435.3,1297.6z"/>
		<path class="st12" d="M-528.5,1119c0,0-25.3,53.6,11.8,124.9c0,0,38.7,75.5,79,58c0,0,49-53.4-29.4-174.6c0,0-22.7-59.7-6.2-173.9
			c0,0,8-102.6,70.5-192.3c0,0,44.2-59.7,106.1-81.4c0,0,58.4-17.4,85-14c0,0-95.4-23.3-169.6,28.9s-102.1,111-119.9,165.6
			c-17.8,54.7-28.3,146-24.6,176.2C-525.8,1036.4-516.8,1114.4-528.5,1119z"/>
		<path class="st13" d="M-427.6,1296.3c0,0,15.7,18.2,39.7,4.7c0,0,22.8-29.5,5.5-99.4c0,0-13.1-63.7-42.9-98.9
			c0,0-30.5-39.3-41.1-35.2c0,0,1.2,41.1,4.5,43.9c3.3,2.9,31.2,31.5,42.1,53.9c0,0,35.5,78.2,5.8,111.1
			C-414,1276.5-422.9,1295.6-427.6,1296.3z"/>
		<path class="st14" d="M-470,1057.8l-0.3,9.4c0,0,16.9-4.1,54.7,51.9c0,0,36,61.9,38.5,131.4c0,0,0.2,32.3-11.3,51.2
			c0,0,4.8-0.9,7-4.1s0,0,0,0s23.5-26.6,12.1-79.2c0,0-10-69-41.5-113.5C-410.8,1104.7-435,1064.1-470,1057.8z"/>
		<path class="st2" d="M-374.7,1292.6c0,0,27.7-34.3-1.2-131.1c0,0-27.9-69.1-40.3-78.5c0,0-27.9-31.3-48.8-29.9
			c0,0,43.3-19.6,82.5,36.4c0,0,39.1,51.4,39,126.7C-343.5,1216.1-344.3,1267.1-374.7,1292.6z"/>
		<path class="st3" d="M-430.5,1299.1c0,0,35.8-60.7-37.7-171.2c0,0-13-70.3-5.7-127.7c0,0,5.5-234.4,168.2-307
			c0,0,178.5-85.2,258.8,106.4c0,0,40.8,118.3-5.9,272.9c0,0-8.7,35,0.4,48c0,0,14.9,53.8-29.5,114.6c0,0-28.1,40.6-63.8,37.3
			c0,0,92.9-34.9,84.5-145.8c0,0-13.7-22.7-2.1-57.5c0,0,52.7-146.1-4.4-294.1c0,0-60.1-118.7-205.3-81.1c0,0-154.6,31-183.2,244.1
			c0,0-16.1,101.1-5.5,160c0,0-1,21.7,15.4,41.8c0,0,36.8,43.5,38.2,106.1C-407.9,1245.8-405.4,1290.6-430.5,1299.1z"/>
		<path class="st4" d="M-474.7,1056.9c0,0,57.5,6.7,90.8,115.3c0,0,31.5,84.6-2.7,125.7c0,0,5.4,1.8,9.7-2.3c0,0,52.5-49.2-27-198.6
			C-403.8,1097.1-443,1040.5-474.7,1056.9z"/>
		<path class="st5" d="M-459.8,1113.7c0,0,41.1,32.9,51.8,81.2c0,0,18.6,53.5-2,80.1c0,0,8.7-44.7-10.2-90.4
			c0,0-12.6-31.5-22.2-40.4C-442.6,1144.1-455.4,1129.2-459.8,1113.7z"/>
		<path class="st6" d="M-224.1,676.6c0,0,118.4,4.3,155.5,105.3c0,0,36.7,72.3,25.2,189.3c-11.4,117,0,0,0,0s-11.9,74.7-24,106.7
			c0,0-3.9,34.4,5.9,50.7c10,16.3,1.1-0.3,1.1-0.3s16.4,104.1-91.7,151.1c0,0,57.1-32.3,77.6-123.7c0,0,15.6-88.8-34.1-113.9
			c0,0,28.5-146,14.5-182.5C-94.1,859.4-101.5,712.5-224.1,676.6"/>
		<path class="st7" d="M-190.1,1279.8c0,0,61.8-10.9,86.1-102.2c0,0,30.1-91.8-8-136.7c0,0,36.7,17.6,29.7,77.6
			c0,0-3.9,75.5-40.3,124.8C-122.7,1243.3-160.7,1294.5-190.1,1279.8z"/>
		<path class="st15" d="M-181.7,1283.2c0,0,42.2-1.7,78.3-81.8c0,0,46.8-112.5-0.9-157.4c0,0,37.1,13.9,30.9,87.4
			c0,0-2.7,41.4-9.6,56.3c0,0-17.3,39.1-24.9,49.8C-107.9,1237.6-145.5,1292.7-181.7,1283.2z"/>
		<path class="st8" d="M-100.6,1175c-20.3,69.1-66.9,116.6-104.1,106c-37.2-10.6-50.9-75.2-30.5-144.4
			c20.4-69.2,66.9-116.6,104.1-106C-93.9,1041.3-80.3,1105.9-100.6,1175z"/>
		<path class="st9" d="M-192.6,1114.9c0,0,27.5-48.8,44.5-19.1c0,0,13.5,40.1-31.5,107.9c0,0-26.1,37.7-35.6,1.4
			C-215.3,1205.1-221.7,1170.5-192.6,1114.9z"/>
		<path class="st10" d="M-504.9,1158.3c0,0,21.9-17.3,45.8,42.8c0,0,23.7,64.3-13.2,66.7c0,0-14.3,5.8-35.5-37.5
			C-507.7,1230.4-533.6,1169.4-504.9,1158.3z"/>
		<path class="st0" d="M-506.5,1161.3c0,0,20.5-17,41.8,40.4c0,0,21,61.4-13.1,64.2c0,0-13.3,5.7-32.2-35.5
			C-510.1,1230.6-533.2,1172.4-506.5,1161.3z"/>
	</g>
</g>
<g id="headphonedisabled">
	<g id="h2">
		<path class="st11" d="M-435.3,1298.2c0,0,36.9-61.2-39.3-174.3c0,0-13.5-71.6-6-129.8c0,0,5.4-238.1,173.5-309.5
			c0,0,184.5-84.1,267.8,111.6c0,0,42.4,120.8-5.7,277.1c0,0-9,35.5,0.5,48.8c0,0,15.5,54.8-30.4,115.9c0,0-29,40.9-65.9,37
			c0,0,96.1-34.1,87.2-146.9c0,0-14.2-23.3-2.3-58.4c0,0,54.3-147.6-5-298.9c0,0-62.4-121.4-212.4-85.3c0,0-159.8,29.4-189.1,245.4
			c0,0-16.4,102.6-5.3,162.5c0,0-1,22,16.1,42.8c0,0,38.1,44.7,39.7,108.2C-412,1244.3-409.4,1289.8-435.3,1298.2z"/>
		<path class="st12" d="M-528.5,1119.5c0,0-25.3,53.6,11.8,124.9c0,0,38.7,75.5,79,58c0,0,49-53.4-29.4-174.6
			c0,0-22.7-59.7-6.2-173.9c0,0,8-102.6,70.5-192.3c0,0,44.2-59.7,106.1-81.4c0,0,58.4-17.4,85-14c0,0-95.4-23.3-169.6,28.9
			s-102.1,111-119.9,165.6c-17.8,54.7-28.3,146-24.6,176.2C-525.8,1036.9-516.8,1114.9-528.5,1119.5z"/>
		<path class="st13" d="M-427.6,1296.8c0,0,15.7,18.2,39.7,4.7c0,0,22.8-29.5,5.5-99.4c0,0-13.1-63.7-42.9-98.9
			c0,0-30.5-39.3-41.1-35.2c0,0,1.2,41.1,4.5,43.9c3.3,2.9,31.2,31.5,42.1,53.9c0,0,35.5,78.2,5.8,111.1
			C-414,1277-422.9,1296.2-427.6,1296.8z"/>
		<path class="st14" d="M-470,1058.3l-0.3,9.4c0,0,16.9-4.1,54.7,51.9c0,0,36,61.9,38.5,131.4c0,0,0.2,32.3-11.3,51.2
			c0,0,4.8-0.9,7-4.1s0,0,0,0s23.5-26.6,12.1-79.2c0,0-10-69-41.5-113.5C-410.8,1105.3-435,1064.6-470,1058.3z"/>
		<path class="st2" d="M-374.7,1293.1c0,0,27.7-34.3-1.2-131.1c0,0-27.9-69.1-40.3-78.5c0,0-27.9-31.3-48.8-29.9
			c0,0,43.3-19.6,82.5,36.4c0,0,39.1,51.4,39,126.7C-343.5,1216.7-344.3,1267.6-374.7,1293.1z"/>
		<path class="st3" d="M-430.5,1299.7c0,0,35.8-60.7-37.7-171.2c0,0-13-70.3-5.7-127.7c0,0,5.5-234.4,168.2-307
			c0,0,178.5-85.2,258.8,106.4c0,0,40.8,118.3-5.9,272.9c0,0-8.7,35,0.4,48c0,0,14.9,53.8-29.5,114.6c0,0-28.1,40.6-63.8,37.3
			c0,0,92.9-34.9,84.5-145.8c0,0-13.7-22.7-2.1-57.5c0,0,52.7-146.1-4.4-294.1c0,0-60.1-118.7-205.3-81.1c0,0-154.6,31-183.2,244.1
			c0,0-16.1,101.1-5.5,160c0,0-1,21.7,15.4,41.8c0,0,36.8,43.5,38.2,106.1C-407.9,1246.4-405.4,1291.2-430.5,1299.7z"/>
		<path class="st4" d="M-474.7,1057.5c0,0,57.5,6.7,90.8,115.3c0,0,31.5,84.6-2.7,125.7c0,0,5.4,1.8,9.7-2.3c0,0,52.5-49.2-27-198.6
			C-403.8,1097.6-443,1041.1-474.7,1057.5z"/>
		<path class="st5" d="M-459.8,1114.2c0,0,41.1,32.9,51.8,81.2c0,0,18.6,53.5-2,80.1c0,0,8.7-44.7-10.2-90.4
			c0,0-12.6-31.5-22.2-40.4C-442.6,1144.7-455.4,1129.7-459.8,1114.2z"/>
		<path class="st6" d="M-224.1,677.2c0,0,118.4,4.3,155.5,105.3c0,0,36.7,72.3,25.2,189.3c-11.4,117,0,0,0,0s-11.9,74.7-24,106.7
			c0,0-3.9,34.4,5.9,50.7c10,16.3,1.1-0.3,1.1-0.3S-44,1233-152.1,1280c0,0,57.1-32.3,77.6-123.7c0,0,15.6-88.8-34.1-113.9
			c0,0,28.5-146,14.5-182.5C-94.1,860-101.5,713.1-224.1,677.2"/>
		<path class="st10" d="M-504.9,1158.9c0,0,21.9-17.3,45.8,42.8c0,0,23.7,64.3-13.2,66.7c0,0-14.3,5.8-35.5-37.5
			C-507.7,1231-533.6,1169.9-504.9,1158.9z"/>
		<path class="st0" d="M-506.5,1161.9c0,0,20.5-17,41.8,40.4c0,0,21,61.4-13.1,64.2c0,0-13.3,5.7-32.2-35.5
			C-510.1,1231.1-533.2,1172.9-506.5,1161.9z"/>
		<path class="st7" d="M-190.1,1280.3c0,0,61.8-10.9,86.1-102.2c0,0,30.1-91.8-8-136.7c0,0,36.7,17.6,29.7,77.6
			c0,0-3.9,75.5-40.3,124.8C-122.7,1243.9-160.7,1295.1-190.1,1280.3z"/>
		<path class="st15" d="M-181.7,1283.8c0,0,42.2-1.7,78.3-81.8c0,0,46.8-112.5-0.9-157.4c0,0,37.1,13.9,30.9,87.4
			c0,0-2.7,41.4-9.6,56.3c0,0-17.3,39.1-24.9,49.8C-107.9,1238.2-145.5,1293.3-181.7,1283.8z"/>
		<path class="st8" d="M-100.6,1175.6c-20.3,69.1-66.9,116.6-104.1,106s-50.9-75.2-30.5-144.4c20.4-69.2,66.9-116.6,104.1-106
			C-93.9,1041.8-80.3,1106.5-100.6,1175.6z"/>
		<path class="st9" d="M-192.6,1115.4c0,0,27.5-48.8,44.5-19.1c0,0,13.5,40.1-31.5,107.9c0,0-26.1,37.7-35.6,1.4
			C-215.3,1205.6-221.7,1171.1-192.6,1115.4z"/>
		<path class="st16" d="M-43.8,1261.2l-463-531.6c-9.4-10.8-8.3-27.3,2.5-36.7l4.9-4.3c10.8-9.4,27.3-8.3,36.7,2.5L0.2,1222.7
			c9.4,10.8,8.3,27.3-2.5,36.7l-4.9,4.3C-18,1273.2-34.4,1272-43.8,1261.2z"/>
	</g>
</g>
</svg>
